<mxfile host="Electron" modified="2024-05-05T15:41:21.236Z" agent="Mozilla/5.0 (Windows NT 10.0; Win64; x64) AppleWebKit/537.36 (KHTML, like Gecko) draw.io/24.2.5 Chrome/120.0.6099.109 Electron/28.1.0 Safari/537.36" etag="rWWAKj1yCEdbVLEXjnOY" version="24.2.5" type="device">
  <diagram name="Page-1" id="dRzB6haeG7XCbHSBz5Z7">
    <mxGraphModel dx="2140" dy="621" grid="1" gridSize="10" guides="1" tooltips="1" connect="1" arrows="1" fold="1" page="1" pageScale="1" pageWidth="850" pageHeight="1100" math="0" shadow="0">
      <root>
        <mxCell id="0" />
        <mxCell id="1" parent="0" />
        <mxCell id="JvKSczzwhJmZVHfa1G4t-1" value="SalesOffice" style="text;html=1;align=center;verticalAlign=middle;resizable=0;points=[];autosize=1;strokeColor=none;fillColor=none;" vertex="1" parent="1">
          <mxGeometry x="10" y="8" width="80" height="30" as="geometry" />
        </mxCell>
        <mxCell id="JvKSczzwhJmZVHfa1G4t-2" value="" style="shape=table;startSize=0;container=1;collapsible=0;childLayout=tableLayout;" vertex="1" parent="1">
          <mxGeometry y="60" width="240" height="40" as="geometry" />
        </mxCell>
        <mxCell id="JvKSczzwhJmZVHfa1G4t-3" value="" style="shape=tableRow;horizontal=0;startSize=0;swimlaneHead=0;swimlaneBody=0;strokeColor=inherit;top=0;left=0;bottom=0;right=0;collapsible=0;dropTarget=0;fillColor=none;points=[[0,0.5],[1,0.5]];portConstraint=eastwest;" vertex="1" parent="JvKSczzwhJmZVHfa1G4t-2">
          <mxGeometry width="240" height="40" as="geometry" />
        </mxCell>
        <mxCell id="JvKSczzwhJmZVHfa1G4t-4" value="Number" style="shape=partialRectangle;html=1;whiteSpace=wrap;connectable=0;strokeColor=inherit;overflow=hidden;fillColor=none;top=0;left=0;bottom=0;right=0;pointerEvents=1;" vertex="1" parent="JvKSczzwhJmZVHfa1G4t-3">
          <mxGeometry width="60" height="40" as="geometry">
            <mxRectangle width="60" height="40" as="alternateBounds" />
          </mxGeometry>
        </mxCell>
        <mxCell id="JvKSczzwhJmZVHfa1G4t-5" value="Location" style="shape=partialRectangle;html=1;whiteSpace=wrap;connectable=0;strokeColor=inherit;overflow=hidden;fillColor=none;top=0;left=0;bottom=0;right=0;pointerEvents=1;" vertex="1" parent="JvKSczzwhJmZVHfa1G4t-3">
          <mxGeometry x="60" width="60" height="40" as="geometry">
            <mxRectangle width="60" height="40" as="alternateBounds" />
          </mxGeometry>
        </mxCell>
        <mxCell id="JvKSczzwhJmZVHfa1G4t-6" value="EmpID" style="shape=partialRectangle;html=1;whiteSpace=wrap;connectable=0;strokeColor=inherit;overflow=hidden;fillColor=none;top=0;left=0;bottom=0;right=0;pointerEvents=1;" vertex="1" parent="JvKSczzwhJmZVHfa1G4t-3">
          <mxGeometry x="120" width="60" height="40" as="geometry">
            <mxRectangle width="60" height="40" as="alternateBounds" />
          </mxGeometry>
        </mxCell>
        <mxCell id="JvKSczzwhJmZVHfa1G4t-41" value="PropID" style="shape=partialRectangle;html=1;whiteSpace=wrap;connectable=0;strokeColor=inherit;overflow=hidden;fillColor=none;top=0;left=0;bottom=0;right=0;pointerEvents=1;" vertex="1" parent="JvKSczzwhJmZVHfa1G4t-3">
          <mxGeometry x="180" width="60" height="40" as="geometry">
            <mxRectangle width="60" height="40" as="alternateBounds" />
          </mxGeometry>
        </mxCell>
        <mxCell id="JvKSczzwhJmZVHfa1G4t-8" value="Employee" style="text;html=1;align=center;verticalAlign=middle;resizable=0;points=[];autosize=1;strokeColor=none;fillColor=none;" vertex="1" parent="1">
          <mxGeometry x="-10" y="118" width="80" height="30" as="geometry" />
        </mxCell>
        <mxCell id="JvKSczzwhJmZVHfa1G4t-9" value="" style="shape=table;startSize=0;container=1;collapsible=0;childLayout=tableLayout;" vertex="1" parent="1">
          <mxGeometry y="170" width="180" height="40" as="geometry" />
        </mxCell>
        <mxCell id="JvKSczzwhJmZVHfa1G4t-10" value="" style="shape=tableRow;horizontal=0;startSize=0;swimlaneHead=0;swimlaneBody=0;strokeColor=inherit;top=0;left=0;bottom=0;right=0;collapsible=0;dropTarget=0;fillColor=none;points=[[0,0.5],[1,0.5]];portConstraint=eastwest;" vertex="1" parent="JvKSczzwhJmZVHfa1G4t-9">
          <mxGeometry width="180" height="40" as="geometry" />
        </mxCell>
        <mxCell id="JvKSczzwhJmZVHfa1G4t-11" value="ID" style="shape=partialRectangle;html=1;whiteSpace=wrap;connectable=0;strokeColor=inherit;overflow=hidden;fillColor=none;top=0;left=0;bottom=0;right=0;pointerEvents=1;" vertex="1" parent="JvKSczzwhJmZVHfa1G4t-10">
          <mxGeometry width="60" height="40" as="geometry">
            <mxRectangle width="60" height="40" as="alternateBounds" />
          </mxGeometry>
        </mxCell>
        <mxCell id="JvKSczzwhJmZVHfa1G4t-12" value="Name" style="shape=partialRectangle;html=1;whiteSpace=wrap;connectable=0;strokeColor=inherit;overflow=hidden;fillColor=none;top=0;left=0;bottom=0;right=0;pointerEvents=1;" vertex="1" parent="JvKSczzwhJmZVHfa1G4t-10">
          <mxGeometry x="60" width="60" height="40" as="geometry">
            <mxRectangle width="60" height="40" as="alternateBounds" />
          </mxGeometry>
        </mxCell>
        <mxCell id="JvKSczzwhJmZVHfa1G4t-13" value="ManageID" style="shape=partialRectangle;html=1;whiteSpace=wrap;connectable=0;strokeColor=inherit;overflow=hidden;fillColor=none;top=0;left=0;bottom=0;right=0;pointerEvents=1;" vertex="1" parent="JvKSczzwhJmZVHfa1G4t-10">
          <mxGeometry x="120" width="60" height="40" as="geometry">
            <mxRectangle width="60" height="40" as="alternateBounds" />
          </mxGeometry>
        </mxCell>
        <mxCell id="JvKSczzwhJmZVHfa1G4t-15" value="Property" style="text;html=1;align=center;verticalAlign=middle;resizable=0;points=[];autosize=1;strokeColor=none;fillColor=none;" vertex="1" parent="1">
          <mxGeometry x="-5" y="228" width="70" height="30" as="geometry" />
        </mxCell>
        <mxCell id="JvKSczzwhJmZVHfa1G4t-16" value="" style="shape=table;startSize=0;container=1;collapsible=0;childLayout=tableLayout;" vertex="1" parent="1">
          <mxGeometry y="280" width="300" height="40" as="geometry" />
        </mxCell>
        <mxCell id="JvKSczzwhJmZVHfa1G4t-17" value="" style="shape=tableRow;horizontal=0;startSize=0;swimlaneHead=0;swimlaneBody=0;strokeColor=inherit;top=0;left=0;bottom=0;right=0;collapsible=0;dropTarget=0;fillColor=none;points=[[0,0.5],[1,0.5]];portConstraint=eastwest;" vertex="1" parent="JvKSczzwhJmZVHfa1G4t-16">
          <mxGeometry width="300" height="40" as="geometry" />
        </mxCell>
        <mxCell id="JvKSczzwhJmZVHfa1G4t-18" value="ID" style="shape=partialRectangle;html=1;whiteSpace=wrap;connectable=0;strokeColor=inherit;overflow=hidden;fillColor=none;top=0;left=0;bottom=0;right=0;pointerEvents=1;" vertex="1" parent="JvKSczzwhJmZVHfa1G4t-17">
          <mxGeometry width="60" height="40" as="geometry">
            <mxRectangle width="60" height="40" as="alternateBounds" />
          </mxGeometry>
        </mxCell>
        <mxCell id="JvKSczzwhJmZVHfa1G4t-19" value="Adress" style="shape=partialRectangle;html=1;whiteSpace=wrap;connectable=0;strokeColor=inherit;overflow=hidden;fillColor=none;top=0;left=0;bottom=0;right=0;pointerEvents=1;" vertex="1" parent="JvKSczzwhJmZVHfa1G4t-17">
          <mxGeometry x="60" width="60" height="40" as="geometry">
            <mxRectangle width="60" height="40" as="alternateBounds" />
          </mxGeometry>
        </mxCell>
        <mxCell id="JvKSczzwhJmZVHfa1G4t-20" value="City" style="shape=partialRectangle;html=1;whiteSpace=wrap;connectable=0;strokeColor=inherit;overflow=hidden;fillColor=none;top=0;left=0;bottom=0;right=0;pointerEvents=1;" vertex="1" parent="JvKSczzwhJmZVHfa1G4t-17">
          <mxGeometry x="120" width="60" height="40" as="geometry">
            <mxRectangle width="60" height="40" as="alternateBounds" />
          </mxGeometry>
        </mxCell>
        <mxCell id="JvKSczzwhJmZVHfa1G4t-22" value="State" style="shape=partialRectangle;html=1;whiteSpace=wrap;connectable=0;strokeColor=inherit;overflow=hidden;fillColor=none;top=0;left=0;bottom=0;right=0;pointerEvents=1;" vertex="1" parent="JvKSczzwhJmZVHfa1G4t-17">
          <mxGeometry x="180" width="60" height="40" as="geometry">
            <mxRectangle width="60" height="40" as="alternateBounds" />
          </mxGeometry>
        </mxCell>
        <mxCell id="JvKSczzwhJmZVHfa1G4t-23" value="Code" style="shape=partialRectangle;html=1;whiteSpace=wrap;connectable=0;strokeColor=inherit;overflow=hidden;fillColor=none;top=0;left=0;bottom=0;right=0;pointerEvents=1;" vertex="1" parent="JvKSczzwhJmZVHfa1G4t-17">
          <mxGeometry x="240" width="60" height="40" as="geometry">
            <mxRectangle width="60" height="40" as="alternateBounds" />
          </mxGeometry>
        </mxCell>
        <mxCell id="JvKSczzwhJmZVHfa1G4t-24" value="Owner" style="text;html=1;align=center;verticalAlign=middle;resizable=0;points=[];autosize=1;strokeColor=none;fillColor=none;" vertex="1" parent="1">
          <mxGeometry x="-5" y="350" width="60" height="30" as="geometry" />
        </mxCell>
        <mxCell id="JvKSczzwhJmZVHfa1G4t-25" value="" style="shape=table;startSize=0;container=1;collapsible=0;childLayout=tableLayout;" vertex="1" parent="1">
          <mxGeometry y="390" width="180" height="40" as="geometry" />
        </mxCell>
        <mxCell id="JvKSczzwhJmZVHfa1G4t-26" value="" style="shape=tableRow;horizontal=0;startSize=0;swimlaneHead=0;swimlaneBody=0;strokeColor=inherit;top=0;left=0;bottom=0;right=0;collapsible=0;dropTarget=0;fillColor=none;points=[[0,0.5],[1,0.5]];portConstraint=eastwest;" vertex="1" parent="JvKSczzwhJmZVHfa1G4t-25">
          <mxGeometry width="180" height="40" as="geometry" />
        </mxCell>
        <mxCell id="JvKSczzwhJmZVHfa1G4t-27" value="ID" style="shape=partialRectangle;html=1;whiteSpace=wrap;connectable=0;strokeColor=inherit;overflow=hidden;fillColor=none;top=0;left=0;bottom=0;right=0;pointerEvents=1;" vertex="1" parent="JvKSczzwhJmZVHfa1G4t-26">
          <mxGeometry width="60" height="40" as="geometry">
            <mxRectangle width="60" height="40" as="alternateBounds" />
          </mxGeometry>
        </mxCell>
        <mxCell id="JvKSczzwhJmZVHfa1G4t-28" value="Name" style="shape=partialRectangle;html=1;whiteSpace=wrap;connectable=0;strokeColor=inherit;overflow=hidden;fillColor=none;top=0;left=0;bottom=0;right=0;pointerEvents=1;" vertex="1" parent="JvKSczzwhJmZVHfa1G4t-26">
          <mxGeometry x="60" width="60" height="40" as="geometry">
            <mxRectangle width="60" height="40" as="alternateBounds" />
          </mxGeometry>
        </mxCell>
        <mxCell id="JvKSczzwhJmZVHfa1G4t-29" value="" style="shape=partialRectangle;html=1;whiteSpace=wrap;connectable=0;strokeColor=inherit;overflow=hidden;fillColor=none;top=0;left=0;bottom=0;right=0;pointerEvents=1;" vertex="1" parent="JvKSczzwhJmZVHfa1G4t-26">
          <mxGeometry x="120" width="60" height="40" as="geometry">
            <mxRectangle width="60" height="40" as="alternateBounds" />
          </mxGeometry>
        </mxCell>
        <mxCell id="JvKSczzwhJmZVHfa1G4t-34" value="" style="shape=table;startSize=0;container=1;collapsible=0;childLayout=tableLayout;" vertex="1" parent="1">
          <mxGeometry x="-5" y="480" width="120" height="40" as="geometry" />
        </mxCell>
        <mxCell id="JvKSczzwhJmZVHfa1G4t-35" value="" style="shape=tableRow;horizontal=0;startSize=0;swimlaneHead=0;swimlaneBody=0;strokeColor=inherit;top=0;left=0;bottom=0;right=0;collapsible=0;dropTarget=0;fillColor=none;points=[[0,0.5],[1,0.5]];portConstraint=eastwest;" vertex="1" parent="JvKSczzwhJmZVHfa1G4t-34">
          <mxGeometry width="120" height="40" as="geometry" />
        </mxCell>
        <mxCell id="JvKSczzwhJmZVHfa1G4t-36" value="OwnerID" style="shape=partialRectangle;html=1;whiteSpace=wrap;connectable=0;strokeColor=inherit;overflow=hidden;fillColor=none;top=0;left=0;bottom=0;right=0;pointerEvents=1;" vertex="1" parent="JvKSczzwhJmZVHfa1G4t-35">
          <mxGeometry width="60" height="40" as="geometry">
            <mxRectangle width="60" height="40" as="alternateBounds" />
          </mxGeometry>
        </mxCell>
        <mxCell id="JvKSczzwhJmZVHfa1G4t-37" value="PropertyID" style="shape=partialRectangle;html=1;whiteSpace=wrap;connectable=0;strokeColor=inherit;overflow=hidden;fillColor=none;top=0;left=0;bottom=0;right=0;pointerEvents=1;" vertex="1" parent="JvKSczzwhJmZVHfa1G4t-35">
          <mxGeometry x="60" width="60" height="40" as="geometry">
            <mxRectangle width="60" height="40" as="alternateBounds" />
          </mxGeometry>
        </mxCell>
        <mxCell id="JvKSczzwhJmZVHfa1G4t-38" value="OwnerProperty" style="text;html=1;align=center;verticalAlign=middle;resizable=0;points=[];autosize=1;strokeColor=none;fillColor=none;" vertex="1" parent="1">
          <mxGeometry x="-5" y="450" width="100" height="30" as="geometry" />
        </mxCell>
        <mxCell id="JvKSczzwhJmZVHfa1G4t-39" style="edgeStyle=orthogonalEdgeStyle;rounded=0;orthogonalLoop=1;jettySize=auto;html=1;" edge="1" parent="1" source="JvKSczzwhJmZVHfa1G4t-35" target="JvKSczzwhJmZVHfa1G4t-26">
          <mxGeometry relative="1" as="geometry">
            <Array as="points">
              <mxPoint x="-20" y="500" />
              <mxPoint x="-20" y="410" />
            </Array>
          </mxGeometry>
        </mxCell>
        <mxCell id="JvKSczzwhJmZVHfa1G4t-40" style="edgeStyle=orthogonalEdgeStyle;rounded=0;orthogonalLoop=1;jettySize=auto;html=1;entryX=0;entryY=0.5;entryDx=0;entryDy=0;" edge="1" parent="1" source="JvKSczzwhJmZVHfa1G4t-35" target="JvKSczzwhJmZVHfa1G4t-17">
          <mxGeometry relative="1" as="geometry">
            <Array as="points">
              <mxPoint x="210" y="500" />
              <mxPoint x="210" y="340" />
              <mxPoint x="-20" y="340" />
              <mxPoint x="-20" y="300" />
            </Array>
          </mxGeometry>
        </mxCell>
        <mxCell id="JvKSczzwhJmZVHfa1G4t-42" style="edgeStyle=orthogonalEdgeStyle;rounded=0;orthogonalLoop=1;jettySize=auto;html=1;entryX=0.112;entryY=-0.02;entryDx=0;entryDy=0;entryPerimeter=0;" edge="1" parent="1" source="JvKSczzwhJmZVHfa1G4t-3" target="JvKSczzwhJmZVHfa1G4t-17">
          <mxGeometry relative="1" as="geometry">
            <Array as="points">
              <mxPoint x="260" y="80" />
              <mxPoint x="260" y="220" />
              <mxPoint x="34" y="220" />
            </Array>
          </mxGeometry>
        </mxCell>
        <mxCell id="JvKSczzwhJmZVHfa1G4t-43" style="edgeStyle=orthogonalEdgeStyle;rounded=0;orthogonalLoop=1;jettySize=auto;html=1;entryX=0;entryY=0.5;entryDx=0;entryDy=0;" edge="1" parent="1" source="JvKSczzwhJmZVHfa1G4t-3" target="JvKSczzwhJmZVHfa1G4t-10">
          <mxGeometry relative="1" as="geometry">
            <Array as="points">
              <mxPoint x="140" y="40" />
              <mxPoint x="-20" y="40" />
              <mxPoint x="-20" y="190" />
            </Array>
          </mxGeometry>
        </mxCell>
      </root>
    </mxGraphModel>
  </diagram>
</mxfile>
